<?xml version="1.0" standalone="no"?>
<!DOCTYPE svg PUBLIC "-//W3C//DTD SVG 20010904//EN"
 "http://www.w3.org/TR/2001/REC-SVG-20010904/DTD/svg10.dtd">
<svg version="1.0" xmlns="http://www.w3.org/2000/svg"
 width="360.000000pt" height="360.000000pt" viewBox="0 0 360.000000 360.000000"
 preserveAspectRatio="xMidYMid meet">

<g transform="translate(0.000000,360.000000) scale(0.100000,-0.100000)"
fill="#000000" stroke="none">
<path d="M2682 3031 c-8 -5 -51 -72 -97 -150 l-82 -141 -5 79 c-4 65 -10 87
-31 120 -54 82 20 76 -993 76 l-900 0 -43 -28 c-28 -19 -49 -43 -62 -72 -19
-42 -19 -76 -17 -1142 3 -1235 -3 -1135 80 -1191 l42 -27 901 0 901 0 42 27
c79 53 77 34 80 565 l3 472 198 343 c109 189 242 420 297 513 135 234 158 279
152 297 -5 13 -395 246 -438 262 -8 3 -21 2 -28 -3z m-299 -126 l27 -26 0
-151 0 -151 -122 -211 c-67 -116 -169 -292 -226 -391 -57 -99 -133 -231 -169
-294 l-65 -113 -24 -202 c-49 -420 -50 -427 -28 -443 10 -7 25 -11 34 -8 8 4
123 88 256 188 l241 182 48 83 c26 45 49 82 51 82 2 0 4 -171 4 -380 l0 -379
-27 -26 -28 -25 -881 0 -881 0 -27 26 -26 27 0 1092 0 1092 26 27 27 26 881 0
881 0 28 -25z m466 -47 c69 -39 143 -82 163 -95 l37 -23 -37 -66 c-20 -37 -42
-69 -49 -71 -8 -3 -300 157 -331 183 -5 3 79 144 85 144 3 0 62 -32 132 -72z
m-101 -239 c86 -50 160 -94 164 -97 3 -4 -11 -36 -31 -72 -42 -73 -293 -509
-473 -820 -65 -113 -124 -205 -131 -204 -6 1 -83 41 -169 91 l-157 90 21 39
c11 21 75 134 142 249 68 116 175 302 240 415 187 324 231 400 234 400 1 0 73
-41 160 -91z m-635 -1204 c65 -37 116 -71 115 -76 -2 -4 -84 -69 -183 -144
-133 -101 -181 -133 -183 -120 -3 15 31 346 44 423 l5 33 42 -24 c23 -13 95
-55 160 -92z"/>
<path d="M1002 2538 c-18 -18 -14 -56 7 -68 30 -15 923 -14 939 2 15 15 15 51
0 66 -17 17 -929 17 -946 0z"/>
<path d="M992 2203 c-6 -10 -6 -28 -1 -41 l8 -22 478 2 478 3 0 35 0 35 -477
3 c-447 2 -478 1 -486 -15z"/>
</g>
</svg>
